<?xml version="1.0" encoding="utf-8"?>
<!-- Generator: Adobe Illustrator 22.0.1, SVG Export Plug-In . SVG Version: 6.00 Build 0)  -->
<svg version="1.1" id="Layer_1" xmlns="http://www.w3.org/2000/svg" xmlns:xlink="http://www.w3.org/1999/xlink" x="0px" y="0px"
	 viewBox="0 0 415.8 415.8" style="enable-background:new 0 0 415.8 415.8;" xml:space="preserve">
<style type="text/css">
	.st0{fill:#F15C54;}
	.st1{fill:#BCBEC0;}
	.st2{fill:#2AAAE2;}
	.st3{fill:#FFFFFF;}
</style>
<polyline class="st0" points="421.6,248.9 96.2,248.9 96.2,47.9 "/>
<rect x="67.5" y="35.5" class="st1" width="22.8" height="362.3"/>
<g>
	<g>
		<path class="st2" d="M1002.6,260.6"/>
		<path class="st3" d="M142.1,219.9c2.9,0,5.2,2.7,5.2,6c0,3.3-2.3,6-5.2,6h-10.9c-2.9,0-5.2-2.7-5.2-6c0-3.3,2.3-6,5.2-6H142.1z"/>
		<path class="st3" d="M156.4,187c2.9,0,5.2,2.7,5.2,6c0,3.3-2.3,6-5.2,6h-25.3c-2.9,0-5.2-2.7-5.2-6c0-3.3,2.3-6,5.2-6H156.4z"/>
		<path class="st3" d="M176,154.1c2.9,0,5.2,2.7,5.2,6c0,3.3-2.3,6-5.2,6h-55.3c-2.9,0-5.2-2.7-5.2-6c0-3.3,2.3-6,5.2-6H176z"/>
		<path class="st3" d="M156.4,121.2c2.9,0,5.2,2.7,5.2,6c0,3.3-2.3,6-5.2,6h-25.3c-2.9,0-5.2-2.7-5.2-6c0-3.3,2.3-6,5.2-6H156.4z"/>
		<path class="st3" d="M142.1,88.4c2.9,0,5.2,2.7,5.2,5.9c0,3.3-2.3,6-5.2,6h-10.9c-2.9,0-5.2-2.7-5.2-6c0-3.3,2.3-5.9,5.2-5.9
			H142.1z"/>
	</g>
</g>
<ellipse class="st1" cx="78.3" cy="42.4" rx="21" ry="18.7"/>
</svg>
