<?xml version="1.0" encoding="utf-8"?>
<!-- Generator: Adobe Illustrator 22.0.1, SVG Export Plug-In . SVG Version: 6.00 Build 0)  -->
<svg version="1.1" id="Layer_1" xmlns="http://www.w3.org/2000/svg" xmlns:xlink="http://www.w3.org/1999/xlink" x="0px" y="0px"
	 viewBox="0 0 415.8 415.8" style="enable-background:new 0 0 415.8 415.8;" xml:space="preserve">
<style type="text/css">
	.st0{fill:#00A79D;}
	.st1{fill:#FFFFFF;}
	.st2{fill:#2AAAE2;}
</style>
<path class="st0" d="M386.4,273.2c16.3,0,24.3-19.2,12.5-30l-132.7-90c-1.8-1.6-1.7-3.7,0.1-5.3l131.3-79.5
	c12.1-10.8,4.2-30.2-12.3-30.2l-147.8-3.1H99.7c-10,0-18.1,7.8-18.1,17.4v100.1v100.1c0,9.6,8.1,17.4,18.1,17.4h137.8L386.4,273.2z"
	/>
<path class="st0" d="M70.8,406.1L70.8,406.1c-12.6,0-22.8-10.2-22.8-22.8V44.8C48,32.2,58.2,22,70.8,22h0
	c12.6,0,22.8,10.2,22.8,22.8v338.5C93.6,395.9,83.4,406.1,70.8,406.1z"/>
<g>
	<g>
		<path class="st1" d="M185.9,224.1c3.7,0,6.6,3.5,6.6,7.8c0,4.3-3,7.8-6.6,7.8h-13.9c-3.7,0-6.6-3.5-6.6-7.8c0-4.3,3-7.8,6.6-7.8
			H185.9z"/>
		<path class="st1" d="M204.2,181.4c3.7,0,6.6,3.5,6.6,7.8s-3,7.8-6.6,7.8h-32.2c-3.7,0-6.6-3.5-6.6-7.8s3-7.8,6.6-7.8H204.2z"/>
		<path class="st1" d="M229.2,138.7c3.7,0,6.6,3.5,6.6,7.8c0,4.3-3,7.8-6.6,7.8h-70.5c-3.7,0-6.6-3.5-6.6-7.8c0-4.3,3-7.8,6.6-7.8
			H229.2z"/>
		<path class="st1" d="M204.2,96.1c3.7,0,6.6,3.5,6.6,7.8c0,4.3-3,7.8-6.6,7.8h-32.2c-3.7,0-6.6-3.5-6.6-7.8c0-4.3,3-7.8,6.6-7.8
			H204.2z"/>
		<path class="st1" d="M185.9,53.5c3.7,0,6.6,3.5,6.6,7.7c0,4.3-3,7.8-6.6,7.8h-13.9c-3.7,0-6.6-3.5-6.6-7.8c0-4.3,3-7.7,6.6-7.7
			H185.9z"/>
		<path class="st2" d="M856.1,225.7"/>
	</g>
</g>
</svg>
