<?xml version="1.0" encoding="utf-8"?>
<!-- Generator: Adobe Illustrator 22.0.1, SVG Export Plug-In . SVG Version: 6.00 Build 0)  -->
<svg version="1.1" id="Layer_1" xmlns="http://www.w3.org/2000/svg" xmlns:xlink="http://www.w3.org/1999/xlink" x="0px" y="0px"
	 viewBox="0 0 6 5" style="enable-background:new 0 0 6 5;" xml:space="preserve">
<style type="text/css">
	.st0{fill:#AA004C;}
	.st1{fill:#FFFFFF;}
	.st2{fill:#666666;}
</style>
<g>
	<polyline class="st0" points="172,282.1 173.9,282.1 173.9,279.9 	"/>
	<polyline class="st0" points="173.9,282.1 175.8,282.1 175.8,279.9 	"/>
	<rect x="168.9" y="279" class="st0" width="3.2" height="6.1"/>
	<rect x="172" y="282.1" class="st0" width="4.9" height="3.1"/>
	<rect x="172.6" y="282.8" class="st1" width="0.8" height="0.7"/>
	<rect x="174" y="282.8" class="st1" width="0.8" height="0.7"/>
	<rect x="175.3" y="282.8" class="st1" width="0.8" height="0.7"/>
	<ellipse class="st2" cx="170.4" cy="279" rx="1.5" ry="0.2"/>
</g>
<g>
	<polyline class="st0" points="2.3,2.5 3.7,2.5 3.7,0.8 	"/>
	<polyline class="st0" points="3.7,2.5 5.1,2.5 5.1,0.8 	"/>
	<rect x="0" y="0.1" class="st0" width="2.4" height="4.9"/>
	<rect x="2.3" y="2.5" class="st0" width="3.6" height="2.5"/>
	<rect x="2.8" y="3.1" class="st1" width="0.6" height="0.6"/>
	<rect x="3.8" y="3.1" class="st1" width="0.6" height="0.6"/>
	<rect x="4.7" y="3.1" class="st1" width="0.6" height="0.6"/>
	<path class="st2" d="M2,0c0,0-0.4,0-1,0s-1,0-1,0s0.4,0,1,0S2,0,2,0z"/>
</g>
</svg>
