<?xml version="1.0" encoding="utf-8"?>
<!-- Generator: Adobe Illustrator 22.0.1, SVG Export Plug-In . SVG Version: 6.00 Build 0)  -->
<svg version="1.1" id="Layer_1" xmlns="http://www.w3.org/2000/svg" xmlns:xlink="http://www.w3.org/1999/xlink" x="0px" y="0px"
	 viewBox="0 0 15 27.9" style="enable-background:new 0 0 15 27.9;" xml:space="preserve">
<style type="text/css">
	.st0{fill:#22A88E;}
	.st1{fill:#B3B3B3;}
</style>
<g>
	<path class="st0" d="M12.9,2.8C12.9,2.6,11.9,1,7.5,1C3.1,1,2.1,2.6,2.1,2.8C2,2.8,2,2.9,2,3c0,2.1,2.4,4.5,5.5,4.5
		C10.6,7.5,13,5.1,13,3C13,2.9,13,2.8,12.9,2.8z M10.9,3.8C10.8,4,10.2,5,7.5,5C4.8,5,4.2,4,4.1,3.8C3.9,3.6,4,3.3,4.3,3.2
		c0.2-0.1,0.5,0,0.7,0.2C5,3.4,5.5,4,7.5,4c2.1,0,2.6-0.6,2.6-0.6c0.1-0.2,0.4-0.3,0.7-0.2C11,3.3,11.1,3.6,10.9,3.8z"/>
	<g>
		<path class="st1" d="M7.5,27C7.2,27,7,26.7,7,26.4v-9.3c0-0.3,0.2-0.6,0.5-0.6c0.3,0,0.5,0.3,0.5,0.6v9.3C8,26.7,7.8,27,7.5,27z"
			/>
	</g>
	<path class="st0" d="M12.7,12c-0.1-0.1-0.3-0.2-0.4-0.1c-0.2,0-0.3,0.1-0.4,0.3c-0.3,0.7-1.3,1.9-4.4,1.9c-3.1,0-4.1-1.2-4.4-1.9
		c-0.1-0.2-0.2-0.3-0.4-0.3c-0.2,0-0.3,0-0.4,0.1C1.5,12.9,1,13.9,1,15.1c0,0.2,0.6,2.4,6.5,2.4c5.9,0,6.5-2.2,6.5-2.5
		C14,13.9,13.5,12.9,12.7,12z"/>
	<path class="st0" d="M10.5,6C10.2,6,10,6.2,10,6.5H5C5,6.2,4.8,6,4.5,6C4.2,6,4,6.2,4,6.5v5c0,0.1,0,0.1,0,0.1
		C4.1,11.9,4.6,13,7.5,13c2.9,0,3.4-1.1,3.5-1.4c0,0,0-0.1,0-0.1v-5C11,6.2,10.8,6,10.5,6z"/>
</g>
</svg>
